# xmcd CD database file
#
# Track frame offsets:
#	150
#	22509
#	41605
#	54023
#	86206
#	108444
#	143795
#	163471
#	191896
#	208674
#	224894
#	261063
#	284024
#	309801
#
# Disc length: 4378 seconds
#
# Revision: 0
# Processed by: cddbd v1.5.2PL0 Copyright (c) Steve Scherf et al.
# Submitted via: CD2WAV32(JP) R3.22
#
DISCID=d011180e
DTITLE=Eric Clapton - Crossroads Selection
DYEAR=2010
DGENRE=Blues
TTITLE0=White Room
TTITLE1=Crossroad
TTITLE2=Badge
TTITLE3=Lyla
TTITLE4=Let It Grow
TTITLE5=I Shot The Sheriff
TTITLE6=Knocking On The Heaven's Door
TTITLE7=Further On Up The Road
TTITLE8=Wonderful Tonight
TTITLE9=Cocaine
TTITLE10=Double Trouble
TTITLE11=Miss You
TTITLE12=I Wanna Make Love To You
TTITLE13=After Midnight '87
EXTD=
EXTT0=
EXTT1=
EXTT2=
EXTT3=
EXTT4=
EXTT5=
EXTT6=
EXTT7=
EXTT8=
EXTT9=
EXTT10=
EXTT11=
EXTT12=
EXTT13=
PLAYORDER=
